{"title":"Bottle Rocket (1996) DVD Rip","uid":6374671,"size":734311842,"categoryP":"video","categoryS":"movies","magnet":"?xt=urn:btih:90fec92f8ff2ba676c1cc15361ec685bca13298e&amp;dn=Bottle+Rocket+%281996%29+DVD+Rip&amp;tr=udp%3A%2F%2Ftracker.openbittorrent.com%3A80&amp;tr=udp%3A%2F%2Fopen.demonii.com%3A1337&amp;tr=udp%3A%2F%2Ftracker.coppersurfer.tk%3A6969&amp;tr=udp%3A%2F%2Fexodus.desync.com%3A6969","seeders":3,"leechers":0,"uploader":"RetroidPrime91","files":2,"time":1304813680,"description":"Plot\n\nFocusing on a trio of friends and their elaborate plan to pull off a simple robbery and go on the run.\n\n\nFormat : AVI\nFormat/Info : Audio Video Interleave\nFile size : 700 MiB\nDuration : 1h 31mn\nOverall bit rate : 1 071 Kbps\nWriting application : VirtualDubMod 1.4.13\n\nVideo\n\nFormat : MPEG-4 Visual\nFormat profile : Simple@L3\nFormat settings, BVOP : No\nFormat settings, QPel : No\nFormat settings, GMC : No warppoints\nFormat settings, Matrix : Default (H.263)\nCodec ID : XVID\nCodec ID/Hint : XviD\nDuration : 1h 31mn\nBit rate : 931 Kbps\nWidth : 608 pixels\nHeight : 320 pixels\nDisplay aspect ratio : 1.900\nFrame rate : 23.976 fps\nColor space : YUV\nChroma subsampling : 4:2:0\nBit depth : 8 bits\nScan type : Progressive\nCompression mode : Lossy\nBits/(Pixel*Frame) : 0.200\nStream size : 609 MiB (87%)\nWriting library : XviD 0.0.09 (UTC 2003-03-25)\n\nAudio\n\nFormat : MPEG Audio\nFormat version : Version 1\nFormat profile : Layer 3\nMode : Joint stereo\nMode extension : MS Stereo\nCodec ID : 55\nCodec ID/Hint : MP3\nDuration : 1h 31mn\nBit rate mode : Variable\nBit rate : 128 Kbps\nChannel(s) : 2 channels\nSampling rate : 48.0 KHz\nCompression mode : Lossy\nStream size : 83.4 MiB (12%)\nAlignment : Aligned on interleaves\nInterleave, duration : 24 ms (0.58 video frame)\nInterleave, preload duration : 409 ms\nWriting library : LAME3.92\nEncoding settings : -m j -V 4 -q 2 -lowpass 17.5 --abr 128\nLanguage : English\n\nPlease seed &amp; thank you for downloading","torrent":{"xt":"urn:btih:90fec92f8ff2ba676c1cc15361ec685bca13298e","amp;dn":"Bottle+Rocket+%281996%29+DVD+Rip","amp;tr":["udp%3A%2F%2Ftracker.openbittorrent.com%3A80","udp%3A%2F%2Fopen.demonii.com%3A1337","udp%3A%2F%2Ftracker.coppersurfer.tk%3A6969","udp%3A%2F%2Fexodus.desync.com%3A6969"],"infoHash":"90fec92f8ff2ba676c1cc15361ec685bca13298e","infoHashBuffer":{"type":"Buffer","data":[144,254,201,47,143,242,186,103,108,28,193,83,97,236,104,91,202,19,41,142]},"announce":[],"urlList":[]}}